<?xml version="1.0" encoding="UTF-8"?>
<svg width="17px" height="17px" viewBox="0 0 17 17" version="1.1" xmlns="http://www.w3.org/2000/svg" xmlns:xlink="http://www.w3.org/1999/xlink">
    <title>客服-机器人</title>
    <g id="页面-1" stroke="none" stroke-width="1" fill="none" fill-rule="evenodd">
        <g id="切图" transform="translate(-38.000000, -114.000000)" fill="#FFFFFF" fill-rule="nonzero">
            <g id="客服-机器人" transform="translate(38.000000, 114.000000)">
                <path d="M14.7826087,0 C14.1022802,0 13.5507246,0.536018779 13.5507246,1.1971831 C13.5507246,1.68810798 13.8548357,2.11007512 14.2899372,2.29476056 L14.2901836,3.7151784 C13.9257094,3.47782015 13.4967115,3.35141788 13.057971,3.35211268 L3.69565217,3.35211268 C3.23985507,3.35211268 2.81608696,3.48579812 2.46376812,3.71501878 L2.46393237,2.29468075 C2.89886957,2.10991549 3.20289855,1.68810798 3.20289855,1.1971831 C3.20289855,0.536018779 2.651343,0 1.97101449,0 C1.29068599,0 0.739130435,0.536018779 0.739130435,1.1971831 C0.739130435,1.68810798 1.04324155,2.11007512 1.478343,2.29476056 L1.47826087,5.50704225 L1.23188406,5.50704225 C0.551555556,5.50704225 0,6.04306103 0,6.70422535 L0,9.81690141 C0,10.4780657 0.551555556,11.0140845 1.23188406,11.0140845 L1.47826087,11.0140845 C1.47826087,12.2042441 2.47099517,13.1690141 3.69565217,13.1690141 L13.0033575,13.1692535 C12.7178889,13.6486056 12.2336763,14.0328216 11.5508019,14.3217418 C10.9967826,14.55623 10.4323333,14.7308592 9.85753623,14.8457089 L6.89855072,14.8450704 C6.62641041,14.8450704 6.4057971,15.0594693 6.4057971,15.3239437 L6.4057971,16.5211268 C6.4057971,16.7856011 6.62641041,17 6.89855072,17 L9.85507246,17 C10.1272128,17 10.3478261,16.7856011 10.3478261,16.5211268 L10.3478261,15.9019437 L10.4522899,15.968507 C11.4801739,15.7362535 12.3625314,15.3696761 13.0993623,14.8689343 C14.2046087,14.1179014 14.9347874,13.2987887 15.152256,12.7829624 C15.2852174,12.4677042 15.330715,11.9460516 15.288913,11.2178451 L15.2753623,11.0140845 L15.2753623,10.9901408 C15.354942,11.0058638 15.437314,11.0140845 15.5217391,11.0140845 L15.7681159,11.0140845 C16.4484444,11.0140845 17,10.4780657 17,9.81690141 L17,6.70422535 C17,6.04306103 16.4484444,5.50704225 15.7681159,5.50704225 L15.5217391,5.50704225 C15.437314,5.50704225 15.354942,5.51526291 15.2753623,5.53098592 L15.2755266,2.29468075 C15.7104638,2.10991549 16.0144928,1.68810798 16.0144928,1.1971831 C16.0144928,0.536018779 15.4629372,0 14.7826087,0 L14.7826087,0 Z M12.0724638,5.50704225 L12.1317585,5.508 C13.0568213,5.53832864 13.7971014,6.27675117 13.7971014,7.18309859 L13.7971014,8.14084507 L13.7961159,8.19846948 C13.7649082,9.09747418 13.0050821,9.81690141 12.0724638,9.81690141 L4.68115942,9.81690141 L4.62186473,9.81594366 C3.69680193,9.78561502 2.95652174,9.04719249 2.95652174,8.14084507 L2.95652174,7.18309859 L2.95750725,7.12547418 C2.98871498,6.22646948 3.74854106,5.50704225 4.68115942,5.50704225 L12.0724638,5.50704225 L12.0724638,5.50704225 Z M6.03623188,6.46478873 C5.42390338,6.46478873 4.92753623,6.94717371 4.92753623,7.54225352 C4.92753623,8.13733333 5.42390338,8.61971831 6.03623188,8.61971831 C6.64856039,8.61971831 7.14492754,8.13733333 7.14492754,7.54225352 C7.14492754,6.94717371 6.64856039,6.46478873 6.03623188,6.46478873 Z M10.9391304,6.46478873 C10.3268019,6.46478873 9.83043478,6.94717371 9.83043478,7.54225352 C9.83043478,8.13733333 10.3268019,8.61971831 10.9391304,8.61971831 C11.5514589,8.61971831 12.0478261,8.13733333 12.0478261,7.54225352 C12.0478261,6.94717371 11.5514589,6.46478873 10.9391304,6.46478873 Z" id="形状"></path>
            </g>
        </g>
    </g>
</svg>