<?xml version="1.0" encoding="UTF-8"?>
<svg width="32px" height="29px" viewBox="0 0 32 29" version="1.1" xmlns="http://www.w3.org/2000/svg" xmlns:xlink="http://www.w3.org/1999/xlink">
    <title>历史记录</title>
    <g id="页面-1" stroke="none" stroke-width="1" fill="none" fill-rule="evenodd">
        <g id="切图" transform="translate(-76.000000, -44.000000)" fill="#0154FF" fill-rule="nonzero">
            <g id="历史记录" transform="translate(76.000000, 44.000000)">
                <path d="M17.7777778,0 C25.6,0 32,6.4 32,14.2222222 C32,22.0444444 25.6,28.4444444 17.7777778,28.4444444 C9.95555558,28.4444444 3.55555558,22.0444444 3.55555558,14.2222222 C3.55555554,13.5111111 3.55555554,12.9777778 3.73333333,12.2666667 L7.28888892,15.8222222 C8,20.9777777 12.4444445,24.8888889 17.7777778,24.8888889 C23.6444445,24.8888889 28.4444445,20.0888889 28.4444445,14.2222222 C28.4444445,8.35555554 23.6444445,3.55555554 17.7777778,3.55555554 C12.9777778,3.55555554 8.88888892,6.75555554 7.46666667,11.0222222 L6.22222225,9.77777775 L0,3.55555554 L4.97777779,3.55555554 L6.75555558,5.33333333 C9.42222225,2.13333333 13.3333333,0 17.7777778,0 Z M19.5555556,7.11111108 L19.5555556,14.5777777 L23.8222222,18.8444444 L21.3333333,21.3333333 L16,16 L16,7.11111108 L19.5555556,7.11111108 Z" id="形状"></path>
            </g>
        </g>
    </g>
</svg>