<?xml version="1.0" encoding="UTF-8"?>
<svg width="14px" height="17px" viewBox="0 0 14 17" version="1.1" xmlns="http://www.w3.org/2000/svg" xmlns:xlink="http://www.w3.org/1999/xlink">
    <title>T-工业</title>
    <g id="页面-1" stroke="none" stroke-width="1" fill="none" fill-rule="evenodd">
        <g id="切图" transform="translate(-85.000000, -153.000000)" fill="#000000" fill-rule="nonzero">
            <g id="T-工业" transform="translate(85.000000, 153.000000)">
                <polygon id="路径" points="5 15 9 15 9 17 5 17"></polygon>
                <path d="M14.0000001,6.82926829 C14.0000001,3.05746342 10.8660999,0 7.0000001,0 C3.13390014,0 1.03391358e-07,3.05746342 1.03391358e-07,6.82926829 C-0.000453069695,9.40875755 1.48885361,11.7684006 3.8500001,12.9291707 L3.8500001,14 L10.1499999,14 L10.1499999,12.9291707 C12.5111464,11.7684006 14.0004531,9.40875755 14.0000001,6.82926829 L14.0000001,6.82926829 Z M10.4649999,10.2097561 C8.81211307,11.8224932 6.22169693,12.0715411 4.27793535,10.8045931 C2.33417377,9.53764506 1.57842644,7.10756057 2.47287498,5.00047173 C3.36732352,2.89338289 5.66285385,1.69613789 7.95562121,2.14091879 C10.2483886,2.58569969 11.8998312,4.54862995 11.9000215,6.82926829 C11.9038776,8.09779852 11.3871054,9.31505686 10.4649999,10.2094146 L10.4649999,10.2097561 Z" id="形状"></path>
                <polygon id="路径" points="8 3 4 8 8 8"></polygon>
                <polygon id="路径" points="6 11 10 6 6 6 6 11"></polygon>
                <polygon id="路径" points="6 6 8 6 8 8 6 8"></polygon>
            </g>
        </g>
    </g>
</svg>